<svg width="361" height="196" viewBox="0 0 361 196" fill="none" xmlns="http://www.w3.org/2000/svg">
<path d="M196.036 41.5692L163.646 109.213C162.711 111.073 163.512 113.338 165.383 114.137C167.245 115.073 169.513 114.272 170.313 112.404L196.441 57.8113L236.163 131.448H132.724L159.113 81.2514L166.04 89.9058C167.372 91.5067 169.639 91.7672 171.24 90.4373C172.842 89.106 173.102 86.8421 171.771 85.2412L157.916 67.8047L120.46 138.908H248.552L196.036 41.5692Z" fill="#F5900C"/>
<path d="M0.25 145L47.5 40H66.7L114.1 145H93.7L53.05 50.35H60.85L20.35 145H0.25ZM22 120.7L27.25 105.4H83.95L89.2 120.7H22Z" fill="#333333"/>
<path d="M266.3 145V64.9H285.05V145H266.3ZM275.75 51.7C272.25 51.7 269.35 50.6 267.05 48.4C264.85 46.2 263.75 43.55 263.75 40.45C263.75 37.25 264.85 34.6 267.05 32.5C269.35 30.3 272.25 29.2 275.75 29.2C279.25 29.2 282.1 30.25 284.3 32.35C286.6 34.35 287.75 36.9 287.75 40C287.75 43.3 286.65 46.1 284.45 48.4C282.25 50.6 279.35 51.7 275.75 51.7ZM309.659 145V64.9H327.509V86.95L325.409 80.5C327.809 75.1 331.559 71 336.659 68.2C341.859 65.4 348.309 64 356.009 64V81.85C355.209 81.65 354.459 81.55 353.759 81.55C353.059 81.45 352.359 81.4 351.659 81.4C344.559 81.4 338.909 83.5 334.709 87.7C330.509 91.8 328.409 97.95 328.409 106.15V145H309.659Z" fill="#333333"/>
<rect x="1" y="172" width="94" height="2" fill="#333333"/>
<path d="M102.88 183V162.008H105.536V170.808H115.328V162.008H117.984V183H115.328V173.112H105.536V183H102.88ZM130.571 183L137.675 162.008H140.683L147.787 183H144.971L141.291 171.256C140.907 170.083 140.544 168.92 140.203 167.768C139.862 166.595 139.52 165.4 139.179 164.184H139.051C138.731 165.4 138.4 166.595 138.059 167.768C137.718 168.92 137.355 170.083 136.971 171.256L133.259 183H130.571ZM134.283 176.6V174.488H143.979V176.6H134.283ZM160.33 183V162.008H162.986V180.728H172.17V183H160.33ZM185.493 183V162.008H188.149V180.728H197.333V183H185.493ZM207.934 183L215.038 162.008H218.046L225.15 183H222.334L218.654 171.256C218.27 170.083 217.907 168.92 217.566 167.768C217.224 166.595 216.883 165.4 216.542 164.184H216.414C216.094 165.4 215.763 166.595 215.422 167.768C215.08 168.92 214.718 170.083 214.334 171.256L210.622 183H207.934ZM211.646 176.6V174.488H221.342V176.6H211.646ZM241.437 183.384C240.178 183.384 239.079 183.107 238.141 182.552C237.202 181.976 236.445 181.123 235.868 179.992L237.661 178.808C238.087 179.576 238.599 180.141 239.197 180.504C239.815 180.845 240.509 181.016 241.277 181.016C242.429 181.016 243.282 180.675 243.837 179.992C244.413 179.288 244.701 178.125 244.701 176.504V162.008H247.357V176.76C247.357 177.976 247.154 179.085 246.749 180.088C246.365 181.091 245.735 181.891 244.861 182.488C243.986 183.085 242.845 183.384 241.437 183.384ZM262.605 183V162.008H265.261V183H262.605Z" fill="#333333"/>
<rect x="274" y="172" width="87" height="2" fill="#333333"/>
</svg>
